<svg width="156" height="28" viewBox="0 0 156 28" fill="none" xmlns="http://www.w3.org/2000/svg">
<g id="Brand Lockup &#194;&#183; Docs">
<g id="Section / Component" >
<g id="Stage">
<g id="Brand Lockup">
<g id="Theme=Dark">
<g id="logo">
<g id="Vector">
<path d="M151.243 20.5459C150.299 20.5459 149.458 20.3842 148.721 20.0608C147.984 19.7375 147.402 19.2977 146.975 18.7416C146.548 18.1725 146.309 17.5387 146.257 16.8403H149.536C149.575 17.2153 149.749 17.5193 150.06 17.7521C150.37 17.9849 150.752 18.1013 151.204 18.1013C151.618 18.1013 151.935 18.0237 152.155 17.8685C152.388 17.7004 152.504 17.487 152.504 17.2283C152.504 16.9179 152.342 16.6915 152.019 16.5492C151.696 16.394 151.172 16.2259 150.448 16.0448C149.672 15.8637 149.025 15.6762 148.508 15.4822C147.99 15.2752 147.544 14.9583 147.169 14.5315C146.794 14.0918 146.606 13.5033 146.606 12.766C146.606 12.1452 146.774 11.5825 147.111 11.0781C147.46 10.5608 147.964 10.1533 148.624 9.85584C149.297 9.55836 150.092 9.40962 151.01 9.40962C152.368 9.40962 153.435 9.7459 154.211 10.4185C155 11.0911 155.453 11.9835 155.57 13.0958H152.504C152.452 12.7207 152.284 12.4233 152 12.2034C151.728 11.9835 151.366 11.8736 150.913 11.8736C150.525 11.8736 150.228 11.9512 150.021 12.1064C149.814 12.2487 149.71 12.4491 149.71 12.7078C149.71 13.0182 149.872 13.251 150.195 13.4063C150.532 13.5615 151.049 13.7167 151.748 13.8719C152.549 14.0788 153.203 14.2858 153.707 14.4927C154.211 14.6867 154.651 15.0101 155.026 15.4628C155.414 15.9025 155.615 16.4975 155.628 17.2477C155.628 17.8815 155.447 18.4506 155.085 18.955C154.735 19.4465 154.224 19.8345 153.552 20.1191C152.892 20.4036 152.123 20.5459 151.243 20.5459Z" fill="url(#paint0_linear_2251_1910)"/>
<path d="M137.784 9.40962C138.547 9.40962 139.214 9.56483 139.783 9.87524C140.365 10.1857 140.811 10.5931 141.121 11.0975V9.56483H144.439V20.3713C144.439 21.3672 144.238 22.2661 143.837 23.068C143.449 23.8829 142.848 24.5296 142.033 25.0081C141.231 25.4867 140.229 25.726 139.026 25.726C137.422 25.726 136.122 25.3444 135.126 24.5813C134.13 23.8311 133.561 22.8093 133.419 21.5159H136.698C136.801 21.9298 137.047 22.2532 137.435 22.486C137.823 22.7317 138.302 22.8546 138.871 22.8546C139.556 22.8546 140.1 22.6541 140.5 22.2532C140.914 21.8652 141.121 21.2379 141.121 20.3713V18.8386C140.798 19.343 140.352 19.7569 139.783 20.0802C139.214 20.3907 138.547 20.5459 137.784 20.5459C136.892 20.5459 136.083 20.3195 135.359 19.8668C134.635 19.4012 134.059 18.748 133.632 17.9073C133.219 17.0537 133.012 16.0707 133.012 14.9583C133.012 13.846 133.219 12.8695 133.632 12.0288C134.059 11.1881 134.635 10.5414 135.359 10.0887C136.083 9.63596 136.892 9.40962 137.784 9.40962ZM141.121 14.9777C141.121 14.15 140.889 13.4968 140.423 13.0182C139.97 12.5397 139.414 12.3004 138.754 12.3004C138.095 12.3004 137.532 12.5397 137.066 13.0182C136.614 13.4839 136.387 14.1306 136.387 14.9583C136.387 15.7861 136.614 16.4458 137.066 16.9373C137.532 17.4158 138.095 17.6551 138.754 17.6551C139.414 17.6551 139.97 17.4158 140.423 16.9373C140.889 16.4587 141.121 15.8055 141.121 14.9777Z" fill="url(#paint1_linear_2251_1910)"/>
<path d="M127.195 9.44842C128.462 9.44842 129.471 9.86231 130.221 10.6901C130.984 11.5049 131.366 12.6302 131.366 14.0659V20.3907H128.068V14.5121C128.068 13.7878 127.88 13.2252 127.505 12.8242C127.13 12.4233 126.626 12.2228 125.992 12.2228C125.358 12.2228 124.854 12.4233 124.478 12.8242C124.103 13.2252 123.916 13.7878 123.916 14.5121V20.3907H120.598V9.56483H123.916V11.0005C124.252 10.5219 124.705 10.1469 125.274 9.87524C125.843 9.59069 126.483 9.44842 127.195 9.44842Z" fill="url(#paint2_linear_2251_1910)"/>
<path d="M116.545 8.43956C115.963 8.43956 115.484 8.27142 115.109 7.93513C114.747 7.58591 114.566 7.15909 114.566 6.65466C114.566 6.13729 114.747 5.71047 115.109 5.37418C115.484 5.02496 115.963 4.85035 116.545 4.85035C117.114 4.85035 117.58 5.02496 117.942 5.37418C118.317 5.71047 118.504 6.13729 118.504 6.65466C118.504 7.15909 118.317 7.58591 117.942 7.93513C117.58 8.27142 117.114 8.43956 116.545 8.43956ZM118.194 9.56483V20.3907H114.876V9.56483H118.194Z" fill="url(#paint3_linear_2251_1910)"/>
<path d="M113.028 17.5775V20.3907H111.341C110.138 20.3907 109.2 20.0997 108.527 19.5176C107.855 18.9226 107.519 17.9591 107.519 16.6268V12.3198H106.199V9.56483H107.519V6.92627H110.836V9.56483H113.009V12.3198H110.836V16.6656C110.836 16.989 110.914 17.2218 111.069 17.3641C111.224 17.5064 111.483 17.5775 111.845 17.5775H113.028Z" fill="url(#paint4_linear_2251_1910)"/>
<path d="M93.1673 14.9583C93.1673 13.846 93.3742 12.8695 93.7881 12.0288C94.215 11.1881 94.7905 10.5414 95.5148 10.0887C96.2392 9.63596 97.0475 9.40962 97.94 9.40962C98.7031 9.40962 99.3692 9.56483 99.9383 9.87524C100.52 10.1857 100.967 10.5931 101.277 11.0975V9.56483H104.595V20.3907H101.277V18.858C100.954 19.3624 100.501 19.7698 99.9189 20.0802C99.3498 20.3907 98.6837 20.5459 97.9206 20.5459C97.0411 20.5459 96.2392 20.3195 95.5148 19.8668C94.7905 19.4012 94.215 18.748 93.7881 17.9073C93.3742 17.0537 93.1673 16.0707 93.1673 14.9583ZM101.277 14.9777C101.277 14.15 101.044 13.4968 100.579 13.0182C100.126 12.5397 99.5697 12.3004 98.91 12.3004C98.2504 12.3004 97.6878 12.5397 97.2221 13.0182C96.7694 13.4839 96.5431 14.1306 96.5431 14.9583C96.5431 15.7861 96.7694 16.4458 97.2221 16.9373C97.6878 17.4158 98.2504 17.6551 98.91 17.6551C99.5697 17.6551 100.126 17.4158 100.579 16.9373C101.044 16.4587 101.277 15.8055 101.277 14.9777Z" fill="url(#paint5_linear_2251_1910)"/>
<path d="M88.1163 20.3907L85.2838 15.2494H84.4883V20.3907H81.1707V6.77106H86.7389C87.8124 6.77106 88.7243 6.95861 89.4744 7.3337C90.2375 7.70878 90.8066 8.22615 91.1817 8.88579C91.5568 9.53249 91.7444 10.2568 91.7444 11.0587C91.7444 11.9641 91.4857 12.7725 90.9683 13.4839C90.4639 14.1952 89.7137 14.6997 88.7178 14.9971L91.8608 20.3907H88.1163ZM84.4883 12.9018H86.5449C87.1528 12.9018 87.6055 12.7531 87.9029 12.4556C88.2134 12.1581 88.3686 11.7378 88.3686 11.1945C88.3686 10.6772 88.2134 10.2697 87.9029 9.97225C87.6055 9.67477 87.1528 9.52603 86.5449 9.52603H84.4883V12.9018Z" fill="url(#paint6_linear_2251_1910)"/>
<path d="M79.3228 17.5775V20.3907H77.6349C76.432 20.3907 75.4943 20.0997 74.8217 19.5176C74.1491 18.9226 73.8129 17.9591 73.8129 16.6268V12.3198H72.4936V9.56483H73.8129V6.92627H77.1305V9.56483H79.3034V12.3198H77.1305V16.6656C77.1305 16.989 77.2081 17.2218 77.3633 17.3641C77.5185 17.5064 77.7772 17.5775 78.1393 17.5775H79.3228Z" fill="url(#paint7_linear_2251_1910)"/>
<path d="M66.8746 20.5459C65.9304 20.5459 65.0897 20.3842 64.3525 20.0608C63.6152 19.7375 63.0332 19.2977 62.6064 18.7416C62.1796 18.1725 61.9403 17.5387 61.8885 16.8403H65.1673C65.2061 17.2153 65.3807 17.5193 65.6911 17.7521C66.0016 17.9849 66.3831 18.1013 66.8358 18.1013C67.2497 18.1013 67.5666 18.0237 67.7865 17.8685C68.0193 17.7004 68.1357 17.487 68.1357 17.2283C68.1357 16.9179 67.974 16.6915 67.6507 16.5492C67.3273 16.394 66.8035 16.2259 66.0792 16.0448C65.3031 15.8637 64.6564 15.6762 64.1391 15.4822C63.6217 15.2752 63.1755 14.9583 62.8004 14.5315C62.4253 14.0918 62.2377 13.5033 62.2377 12.766C62.2377 12.1452 62.4059 11.5825 62.7422 11.0781C63.0914 10.5608 63.5958 10.1533 64.2555 9.85584C64.928 9.55836 65.7235 9.40962 66.6418 9.40962C67.9999 9.40962 69.0669 9.7459 69.843 10.4185C70.632 11.0911 71.0847 11.9835 71.2011 13.0958H68.1357C68.084 12.7207 67.9158 12.4233 67.6313 12.2034C67.3596 11.9835 66.9975 11.8736 66.5448 11.8736C66.1568 11.8736 65.8593 11.9512 65.6524 12.1064C65.4454 12.2487 65.3419 12.4491 65.3419 12.7078C65.3419 13.0182 65.5036 13.251 65.827 13.4063C66.1632 13.5615 66.6806 13.7167 67.3791 13.8719C68.181 14.0788 68.8341 14.2858 69.3386 14.4927C69.843 14.6867 70.2828 15.0101 70.6578 15.4628C71.0459 15.9025 71.2463 16.4975 71.2593 17.2477C71.2593 17.8815 71.0782 18.4506 70.716 18.955C70.3668 19.4465 69.8559 19.8345 69.1834 20.1191C68.5237 20.4036 67.7541 20.5459 66.8746 20.5459Z" fill="url(#paint8_linear_2251_1910)"/>
<path d="M60.0876 9.56483V20.3907H56.77V18.9162C56.4337 19.3947 55.9745 19.7828 55.3925 20.0802C54.8234 20.3648 54.1896 20.5071 53.4912 20.5071C52.6634 20.5071 51.9326 20.326 51.2988 19.9638C50.6651 19.5888 50.1736 19.052 49.8243 18.3535C49.4751 17.6551 49.3005 16.8338 49.3005 15.8896V9.56483H52.5987V15.4434C52.5987 16.1677 52.7863 16.7303 53.1613 17.1313C53.5364 17.5322 54.0409 17.7327 54.6746 17.7327C55.3213 17.7327 55.8322 17.5322 56.2073 17.1313C56.5824 16.7303 56.77 16.1677 56.77 15.4434V9.56483H60.0876Z" fill="url(#paint9_linear_2251_1910)"/>
<path d="M44.4166 11.3691C44.8046 10.7742 45.2897 10.3085 45.8717 9.97225C46.4537 9.62303 47.1004 9.44842 47.8118 9.44842V12.96H46.9C46.0722 12.96 45.4514 13.1411 45.0375 13.5033C44.6236 13.8525 44.4166 14.4733 44.4166 15.3658V20.3907H41.099V9.56483H44.4166V11.3691Z" fill="url(#paint10_linear_2251_1910)"/>
<path d="M39.434 6.77106V9.42902H35.8254V20.3907H32.5078V9.42902H28.8992V6.77106H39.434Z" fill="url(#paint11_linear_2251_1910)"/>
<path d="M27.2322 6.77106V20.3907H23.9146V6.77106H27.2322Z" fill="url(#paint12_linear_2251_1910)"/>
<path d="M18.0883 17.9849H13.0052L12.1904 20.3907H8.71757L13.6455 6.77106H17.4869L22.4148 20.3907H18.9032L18.0883 17.9849ZM17.2347 15.424L15.5468 10.4379L13.8783 15.424H17.2347Z" fill="url(#paint13_linear_2251_1910)"/>
<path d="M27.2322 4.63478H23.9146V3.34137H3.34131V23.9281H23.9146V22.527H27.2322V27.2695H0V6.10352e-05H27.2322V4.63478Z" fill="url(#paint14_linear_2251_1910)"/>
</g>
<g id="Mask group" style="mix-blend-mode:plus-lighter">
<mask id="mask0_2251_1910" style="mask-type:alpha" maskUnits="userSpaceOnUse" x="0" y="0" width="156" height="28">
<g id="Vector_2">
<path d="M151.243 20.5459C150.299 20.5459 149.458 20.3843 148.721 20.0609C147.984 19.7376 147.402 19.2978 146.975 18.7416C146.548 18.1725 146.309 17.5388 146.257 16.8403H149.536C149.575 17.2154 149.749 17.5194 150.06 17.7522C150.37 17.985 150.752 18.1014 151.204 18.1014C151.618 18.1014 151.935 18.0238 152.155 17.8686C152.388 17.7004 152.504 17.487 152.504 17.2283C152.504 16.9179 152.342 16.6916 152.019 16.5493C151.696 16.3941 151.172 16.2259 150.448 16.0449C149.672 15.8638 149.025 15.6762 148.508 15.4822C147.99 15.2753 147.544 14.9584 147.169 14.5316C146.794 14.0918 146.606 13.5033 146.606 12.7661C146.606 12.1452 146.774 11.5826 147.111 11.0782C147.46 10.5608 147.964 10.1534 148.624 9.8559C149.297 9.55842 150.092 9.40968 151.01 9.40968C152.368 9.40968 153.435 9.74597 154.211 10.4185C155 11.0911 155.453 11.9836 155.57 13.0959H152.504C152.452 12.7208 152.284 12.4233 152 12.2034C151.728 11.9836 151.366 11.8736 150.913 11.8736C150.525 11.8736 150.228 11.9512 150.021 12.1064C149.814 12.2487 149.71 12.4492 149.71 12.7079C149.71 13.0183 149.872 13.2511 150.195 13.4063C150.532 13.5615 151.049 13.7167 151.748 13.8719C152.549 14.0789 153.203 14.2858 153.707 14.4928C154.211 14.6868 154.651 15.0101 155.026 15.4628C155.414 15.9026 155.615 16.4976 155.628 17.2477C155.628 17.8815 155.447 18.4506 155.085 18.955C154.735 19.4465 154.224 19.8346 153.552 20.1191C152.892 20.4037 152.123 20.5459 151.243 20.5459Z" fill="url(#paint15_linear_2251_1910)"/>
<path d="M137.784 9.40968C138.547 9.40968 139.214 9.56489 139.783 9.8753C140.365 10.1857 140.811 10.5931 141.121 11.0976V9.56489H144.439V20.3713C144.439 21.3673 144.238 22.2662 143.837 23.0681C143.449 23.8829 142.848 24.5296 142.033 25.0082C141.231 25.4868 140.229 25.726 139.026 25.726C137.422 25.726 136.122 25.3445 135.126 24.5814C134.13 23.8312 133.561 22.8094 133.419 21.516H136.698C136.801 21.9299 137.047 22.2532 137.435 22.4861C137.823 22.7318 138.302 22.8547 138.871 22.8547C139.556 22.8547 140.1 22.6542 140.5 22.2532C140.914 21.8652 141.121 21.2379 141.121 20.3713V18.8386C140.798 19.3431 140.352 19.757 139.783 20.0803C139.214 20.3907 138.547 20.5459 137.784 20.5459C136.892 20.5459 136.083 20.3196 135.359 19.8669C134.635 19.4013 134.059 18.7481 133.632 17.9074C133.219 17.0537 133.012 16.0707 133.012 14.9584C133.012 13.8461 133.219 12.8695 133.632 12.0288C134.059 11.1881 134.635 10.5414 135.359 10.0887C136.083 9.63602 136.892 9.40968 137.784 9.40968ZM141.121 14.9778C141.121 14.15 140.889 13.4969 140.423 13.0183C139.97 12.5397 139.414 12.3004 138.754 12.3004C138.095 12.3004 137.532 12.5397 137.066 13.0183C136.614 13.4839 136.387 14.1306 136.387 14.9584C136.387 15.7862 136.614 16.4458 137.066 16.9373C137.532 17.4159 138.095 17.6552 138.754 17.6552C139.414 17.6552 139.97 17.4159 140.423 16.9373C140.889 16.4588 141.121 15.8056 141.121 14.9778Z" fill="url(#paint16_linear_2251_1910)"/>
<path d="M127.195 9.44848C128.462 9.44848 129.471 9.86237 130.221 10.6902C130.984 11.505 131.366 12.6303 131.366 14.066V20.3907H128.068V14.5122C128.068 13.7879 127.88 13.2252 127.505 12.8243C127.13 12.4233 126.626 12.2228 125.992 12.2228C125.358 12.2228 124.854 12.4233 124.478 12.8243C124.103 13.2252 123.916 13.7879 123.916 14.5122V20.3907H120.598V9.56489H123.916V11.0006C124.252 10.522 124.705 10.1469 125.274 9.8753C125.843 9.59075 126.483 9.44848 127.195 9.44848Z" fill="url(#paint17_linear_2251_1910)"/>
<path d="M116.545 8.43962C115.963 8.43962 115.484 8.27148 115.109 7.93519C114.747 7.58597 114.566 7.15915 114.566 6.65472C114.566 6.13735 114.747 5.71053 115.109 5.37424C115.484 5.02502 115.963 4.85041 116.545 4.85041C117.114 4.85041 117.58 5.02502 117.942 5.37424C118.317 5.71053 118.504 6.13735 118.504 6.65472C118.504 7.15915 118.317 7.58597 117.942 7.93519C117.58 8.27148 117.114 8.43962 116.545 8.43962ZM118.194 9.56489V20.3907H114.876V9.56489H118.194Z" fill="url(#paint18_linear_2251_1910)"/>
<path d="M113.028 17.5776V20.3907H111.341C110.138 20.3907 109.2 20.0997 108.527 19.5177C107.855 18.9227 107.519 17.9591 107.519 16.6269V12.3199H106.199V9.56489H107.519V6.92633H110.836V9.56489H113.009V12.3199H110.836V16.6657C110.836 16.9891 110.914 17.2219 111.069 17.3642C111.224 17.5064 111.483 17.5776 111.845 17.5776H113.028Z" fill="url(#paint19_linear_2251_1910)"/>
<path d="M93.1673 14.9584C93.1673 13.8461 93.3742 12.8695 93.7881 12.0288C94.215 11.1881 94.7905 10.5414 95.5148 10.0887C96.2392 9.63602 97.0475 9.40968 97.94 9.40968C98.7031 9.40968 99.3692 9.56489 99.9383 9.8753C100.52 10.1857 100.967 10.5931 101.277 11.0976V9.56489H104.595V20.3907H101.277V18.858C100.954 19.3625 100.501 19.7699 99.9189 20.0803C99.3498 20.3907 98.6837 20.5459 97.9206 20.5459C97.0411 20.5459 96.2392 20.3196 95.5148 19.8669C94.7905 19.4013 94.215 18.7481 93.7881 17.9074C93.3742 17.0537 93.1673 16.0707 93.1673 14.9584ZM101.277 14.9778C101.277 14.15 101.044 13.4969 100.579 13.0183C100.126 12.5397 99.5697 12.3004 98.91 12.3004C98.2504 12.3004 97.6878 12.5397 97.2221 13.0183C96.7694 13.4839 96.5431 14.1306 96.5431 14.9584C96.5431 15.7862 96.7694 16.4458 97.2221 16.9373C97.6878 17.4159 98.2504 17.6552 98.91 17.6552C99.5697 17.6552 100.126 17.4159 100.579 16.9373C101.044 16.4588 101.277 15.8056 101.277 14.9778Z" fill="url(#paint20_linear_2251_1910)"/>
<path d="M88.1163 20.3907L85.2838 15.2494H84.4883V20.3907H81.1707V6.77112H86.7389C87.8124 6.77112 88.7243 6.95867 89.4744 7.33376C90.2375 7.70885 90.8066 8.22621 91.1817 8.88585C91.5568 9.53255 91.7444 10.2569 91.7444 11.0588C91.7444 11.9642 91.4857 12.7725 90.9683 13.4839C90.4639 14.1953 89.7137 14.6997 88.7178 14.9972L91.8608 20.3907H88.1163ZM84.4883 12.9019H86.5449C87.1528 12.9019 87.6055 12.7531 87.9029 12.4557C88.2134 12.1582 88.3686 11.7378 88.3686 11.1946C88.3686 10.6772 88.2134 10.2698 87.9029 9.97231C87.6055 9.67483 87.1528 9.52609 86.5449 9.52609H84.4883V12.9019Z" fill="url(#paint21_linear_2251_1910)"/>
<path d="M79.3228 17.5776V20.3907H77.6349C76.432 20.3907 75.4943 20.0997 74.8217 19.5177C74.1491 18.9227 73.8129 17.9591 73.8129 16.6269V12.3199H72.4936V9.56489H73.8129V6.92633H77.1305V9.56489H79.3034V12.3199H77.1305V16.6657C77.1305 16.9891 77.2081 17.2219 77.3633 17.3642C77.5185 17.5064 77.7772 17.5776 78.1393 17.5776H79.3228Z" fill="url(#paint22_linear_2251_1910)"/>
<path d="M66.8746 20.5459C65.9304 20.5459 65.0897 20.3843 64.3525 20.0609C63.6152 19.7376 63.0332 19.2978 62.6064 18.7416C62.1796 18.1725 61.9403 17.5388 61.8885 16.8403H65.1673C65.2061 17.2154 65.3807 17.5194 65.6911 17.7522C66.0016 17.985 66.3831 18.1014 66.8358 18.1014C67.2497 18.1014 67.5666 18.0238 67.7865 17.8686C68.0193 17.7004 68.1357 17.487 68.1357 17.2283C68.1357 16.9179 67.974 16.6916 67.6507 16.5493C67.3273 16.3941 66.8035 16.2259 66.0792 16.0449C65.3031 15.8638 64.6564 15.6762 64.1391 15.4822C63.6217 15.2753 63.1755 14.9584 62.8004 14.5316C62.4253 14.0918 62.2377 13.5033 62.2377 12.7661C62.2377 12.1452 62.4059 11.5826 62.7422 11.0782C63.0914 10.5608 63.5958 10.1534 64.2555 9.8559C64.928 9.55842 65.7235 9.40968 66.6418 9.40968C67.9999 9.40968 69.0669 9.74597 69.843 10.4185C70.632 11.0911 71.0847 11.9836 71.2011 13.0959H68.1357C68.084 12.7208 67.9158 12.4233 67.6313 12.2034C67.3596 11.9836 66.9975 11.8736 66.5448 11.8736C66.1568 11.8736 65.8593 11.9512 65.6524 12.1064C65.4454 12.2487 65.3419 12.4492 65.3419 12.7079C65.3419 13.0183 65.5036 13.2511 65.827 13.4063C66.1632 13.5615 66.6806 13.7167 67.3791 13.8719C68.181 14.0789 68.8341 14.2858 69.3386 14.4928C69.843 14.6868 70.2828 15.0101 70.6578 15.4628C71.0459 15.9026 71.2463 16.4976 71.2593 17.2477C71.2593 17.8815 71.0782 18.4506 70.716 18.955C70.3668 19.4465 69.8559 19.8346 69.1834 20.1191C68.5237 20.4037 67.7541 20.5459 66.8746 20.5459Z" fill="url(#paint23_linear_2251_1910)"/>
<path d="M60.0876 9.56489V20.3907H56.77V18.9162C56.4337 19.3948 55.9745 19.7828 55.3925 20.0803C54.8234 20.3649 54.1896 20.5071 53.4912 20.5071C52.6634 20.5071 51.9326 20.3261 51.2988 19.9639C50.6651 19.5888 50.1736 19.052 49.8243 18.3536C49.4751 17.6552 49.3005 16.8339 49.3005 15.8897V9.56489H52.5987V15.4434C52.5987 16.1677 52.7863 16.7304 53.1613 17.1313C53.5364 17.5323 54.0409 17.7328 54.6746 17.7328C55.3213 17.7328 55.8322 17.5323 56.2073 17.1313C56.5824 16.7304 56.77 16.1677 56.77 15.4434V9.56489H60.0876Z" fill="url(#paint24_linear_2251_1910)"/>
<path d="M44.4166 11.3692C44.8046 10.7742 45.2897 10.3086 45.8717 9.97231C46.4537 9.62309 47.1004 9.44848 47.8118 9.44848V12.9601H46.9C46.0722 12.9601 45.4514 13.1412 45.0375 13.5033C44.6236 13.8525 44.4166 14.4734 44.4166 15.3658V20.3907H41.099V9.56489H44.4166V11.3692Z" fill="url(#paint25_linear_2251_1910)"/>
<path d="M39.434 6.77112V9.42908H35.8254V20.3907H32.5078V9.42908H28.8992V6.77112H39.434Z" fill="url(#paint26_linear_2251_1910)"/>
<path d="M27.2322 6.77112V20.3907H23.9146V6.77112H27.2322Z" fill="url(#paint27_linear_2251_1910)"/>
<path d="M18.0883 17.985H13.0052L12.1904 20.3907H8.71757L13.6455 6.77112H17.4869L22.4148 20.3907H18.9032L18.0883 17.985ZM17.2347 15.424L15.5468 10.4379L13.8783 15.424H17.2347Z" fill="url(#paint28_linear_2251_1910)"/>
<path d="M27.2322 4.63484H23.9146V3.34143H3.34131V23.9282H23.9146V22.527H27.2322V27.2695H0V0.00012207H27.2322V4.63484Z" fill="url(#paint29_linear_2251_1910)"/>
</g>
</mask>
<g mask="url(#mask0_2251_1910)">
<g id="Group 1">
<g id="Glow / Indigo" filter="url(#filter0_f_2251_1910)">
<ellipse cx="28.455" cy="2.04789" rx="32.6586" ry="13.9042" fill="#4D4FEF" fill-opacity="0.26"/>
</g>
<g id="Glow / Violet" filter="url(#filter1_f_2251_1910)">
<ellipse cx="128.048" cy="5.1737" rx="27.5927" ry="13.473" fill="#A855F7" fill-opacity="0.22"/>
</g>
<g id="Glow / Cyan" filter="url(#filter2_f_2251_1910)">
<ellipse cx="11.7484" cy="28.0777" rx="25.4371" ry="9.43111" fill="#22D3EE" fill-opacity="0.1"/>
</g>
</g>
</g>
</g>
</g>
</g>
</g>
</g>
</g>
</g>
<defs>
<filter id="filter0_f_2251_1910" x="-84.2036" y="-91.8563" width="225.317" height="187.808" filterUnits="userSpaceOnUse" color-interpolation-filters="sRGB">
<feFlood flood-opacity="0" result="BackgroundImageFix"/>
<feBlend mode="normal" in="SourceGraphic" in2="BackgroundImageFix" result="shape"/>
<feGaussianBlur stdDeviation="40" result="effect1_foregroundBlur_2251_1910"/>
</filter>
<filter id="filter1_f_2251_1910" x="20.4548" y="-88.2993" width="215.185" height="186.946" filterUnits="userSpaceOnUse" color-interpolation-filters="sRGB">
<feFlood flood-opacity="0" result="BackgroundImageFix"/>
<feBlend mode="normal" in="SourceGraphic" in2="BackgroundImageFix" result="shape"/>
<feGaussianBlur stdDeviation="40" result="effect1_foregroundBlur_2251_1910"/>
</filter>
<filter id="filter2_f_2251_1910" x="-93.6886" y="-61.3535" width="210.874" height="178.862" filterUnits="userSpaceOnUse" color-interpolation-filters="sRGB">
<feFlood flood-opacity="0" result="BackgroundImageFix"/>
<feBlend mode="normal" in="SourceGraphic" in2="BackgroundImageFix" result="shape"/>
<feGaussianBlur stdDeviation="40" result="effect1_foregroundBlur_2251_1910"/>
</filter>
<linearGradient id="paint0_linear_2251_1910" x1="0" y1="13.6348" x2="155.628" y2="13.6348" gradientUnits="userSpaceOnUse">
<stop stop-color="#22D3EE"/>
<stop offset="0.0666667" stop-color="#24D0EE"/>
<stop offset="0.133333" stop-color="#29C7ED"/>
<stop offset="0.2" stop-color="#2EBBED"/>
<stop offset="0.266667" stop-color="#33AEEB"/>
<stop offset="0.333333" stop-color="#37A1EA"/>
<stop offset="0.4" stop-color="#3996E9"/>
<stop offset="0.466667" stop-color="#3B90E8"/>
<stop offset="0.533333" stop-color="#3B8EE8"/>
<stop offset="0.6" stop-color="#3E88E8"/>
<stop offset="0.666667" stop-color="#427EE8"/>
<stop offset="0.733333" stop-color="#4771E7"/>
<stop offset="0.8" stop-color="#4A63E7"/>
<stop offset="0.866667" stop-color="#4D55E6"/>
<stop offset="0.933333" stop-color="#4E4AE5"/>
<stop offset="1" stop-color="#4F46E5"/>
</linearGradient>
<linearGradient id="paint1_linear_2251_1910" x1="0" y1="13.6348" x2="155.628" y2="13.6348" gradientUnits="userSpaceOnUse">
<stop stop-color="#22D3EE"/>
<stop offset="0.0666667" stop-color="#24D0EE"/>
<stop offset="0.133333" stop-color="#29C7ED"/>
<stop offset="0.2" stop-color="#2EBBED"/>
<stop offset="0.266667" stop-color="#33AEEB"/>
<stop offset="0.333333" stop-color="#37A1EA"/>
<stop offset="0.4" stop-color="#3996E9"/>
<stop offset="0.466667" stop-color="#3B90E8"/>
<stop offset="0.533333" stop-color="#3B8EE8"/>
<stop offset="0.6" stop-color="#3E88E8"/>
<stop offset="0.666667" stop-color="#427EE8"/>
<stop offset="0.733333" stop-color="#4771E7"/>
<stop offset="0.8" stop-color="#4A63E7"/>
<stop offset="0.866667" stop-color="#4D55E6"/>
<stop offset="0.933333" stop-color="#4E4AE5"/>
<stop offset="1" stop-color="#4F46E5"/>
</linearGradient>
<linearGradient id="paint2_linear_2251_1910" x1="0" y1="13.6348" x2="155.628" y2="13.6348" gradientUnits="userSpaceOnUse">
<stop stop-color="#22D3EE"/>
<stop offset="0.0666667" stop-color="#24D0EE"/>
<stop offset="0.133333" stop-color="#29C7ED"/>
<stop offset="0.2" stop-color="#2EBBED"/>
<stop offset="0.266667" stop-color="#33AEEB"/>
<stop offset="0.333333" stop-color="#37A1EA"/>
<stop offset="0.4" stop-color="#3996E9"/>
<stop offset="0.466667" stop-color="#3B90E8"/>
<stop offset="0.533333" stop-color="#3B8EE8"/>
<stop offset="0.6" stop-color="#3E88E8"/>
<stop offset="0.666667" stop-color="#427EE8"/>
<stop offset="0.733333" stop-color="#4771E7"/>
<stop offset="0.8" stop-color="#4A63E7"/>
<stop offset="0.866667" stop-color="#4D55E6"/>
<stop offset="0.933333" stop-color="#4E4AE5"/>
<stop offset="1" stop-color="#4F46E5"/>
</linearGradient>
<linearGradient id="paint3_linear_2251_1910" x1="0" y1="13.6348" x2="155.628" y2="13.6348" gradientUnits="userSpaceOnUse">
<stop stop-color="#22D3EE"/>
<stop offset="0.0666667" stop-color="#24D0EE"/>
<stop offset="0.133333" stop-color="#29C7ED"/>
<stop offset="0.2" stop-color="#2EBBED"/>
<stop offset="0.266667" stop-color="#33AEEB"/>
<stop offset="0.333333" stop-color="#37A1EA"/>
<stop offset="0.4" stop-color="#3996E9"/>
<stop offset="0.466667" stop-color="#3B90E8"/>
<stop offset="0.533333" stop-color="#3B8EE8"/>
<stop offset="0.6" stop-color="#3E88E8"/>
<stop offset="0.666667" stop-color="#427EE8"/>
<stop offset="0.733333" stop-color="#4771E7"/>
<stop offset="0.8" stop-color="#4A63E7"/>
<stop offset="0.866667" stop-color="#4D55E6"/>
<stop offset="0.933333" stop-color="#4E4AE5"/>
<stop offset="1" stop-color="#4F46E5"/>
</linearGradient>
<linearGradient id="paint4_linear_2251_1910" x1="0" y1="13.6348" x2="155.628" y2="13.6348" gradientUnits="userSpaceOnUse">
<stop stop-color="#22D3EE"/>
<stop offset="0.0666667" stop-color="#24D0EE"/>
<stop offset="0.133333" stop-color="#29C7ED"/>
<stop offset="0.2" stop-color="#2EBBED"/>
<stop offset="0.266667" stop-color="#33AEEB"/>
<stop offset="0.333333" stop-color="#37A1EA"/>
<stop offset="0.4" stop-color="#3996E9"/>
<stop offset="0.466667" stop-color="#3B90E8"/>
<stop offset="0.533333" stop-color="#3B8EE8"/>
<stop offset="0.6" stop-color="#3E88E8"/>
<stop offset="0.666667" stop-color="#427EE8"/>
<stop offset="0.733333" stop-color="#4771E7"/>
<stop offset="0.8" stop-color="#4A63E7"/>
<stop offset="0.866667" stop-color="#4D55E6"/>
<stop offset="0.933333" stop-color="#4E4AE5"/>
<stop offset="1" stop-color="#4F46E5"/>
</linearGradient>
<linearGradient id="paint5_linear_2251_1910" x1="0" y1="13.6348" x2="155.628" y2="13.6348" gradientUnits="userSpaceOnUse">
<stop stop-color="#22D3EE"/>
<stop offset="0.0666667" stop-color="#24D0EE"/>
<stop offset="0.133333" stop-color="#29C7ED"/>
<stop offset="0.2" stop-color="#2EBBED"/>
<stop offset="0.266667" stop-color="#33AEEB"/>
<stop offset="0.333333" stop-color="#37A1EA"/>
<stop offset="0.4" stop-color="#3996E9"/>
<stop offset="0.466667" stop-color="#3B90E8"/>
<stop offset="0.533333" stop-color="#3B8EE8"/>
<stop offset="0.6" stop-color="#3E88E8"/>
<stop offset="0.666667" stop-color="#427EE8"/>
<stop offset="0.733333" stop-color="#4771E7"/>
<stop offset="0.8" stop-color="#4A63E7"/>
<stop offset="0.866667" stop-color="#4D55E6"/>
<stop offset="0.933333" stop-color="#4E4AE5"/>
<stop offset="1" stop-color="#4F46E5"/>
</linearGradient>
<linearGradient id="paint6_linear_2251_1910" x1="0" y1="13.6348" x2="155.628" y2="13.6348" gradientUnits="userSpaceOnUse">
<stop stop-color="#22D3EE"/>
<stop offset="0.0666667" stop-color="#24D0EE"/>
<stop offset="0.133333" stop-color="#29C7ED"/>
<stop offset="0.2" stop-color="#2EBBED"/>
<stop offset="0.266667" stop-color="#33AEEB"/>
<stop offset="0.333333" stop-color="#37A1EA"/>
<stop offset="0.4" stop-color="#3996E9"/>
<stop offset="0.466667" stop-color="#3B90E8"/>
<stop offset="0.533333" stop-color="#3B8EE8"/>
<stop offset="0.6" stop-color="#3E88E8"/>
<stop offset="0.666667" stop-color="#427EE8"/>
<stop offset="0.733333" stop-color="#4771E7"/>
<stop offset="0.8" stop-color="#4A63E7"/>
<stop offset="0.866667" stop-color="#4D55E6"/>
<stop offset="0.933333" stop-color="#4E4AE5"/>
<stop offset="1" stop-color="#4F46E5"/>
</linearGradient>
<linearGradient id="paint7_linear_2251_1910" x1="0" y1="13.6348" x2="155.628" y2="13.6348" gradientUnits="userSpaceOnUse">
<stop stop-color="#22D3EE"/>
<stop offset="0.0666667" stop-color="#24D0EE"/>
<stop offset="0.133333" stop-color="#29C7ED"/>
<stop offset="0.2" stop-color="#2EBBED"/>
<stop offset="0.266667" stop-color="#33AEEB"/>
<stop offset="0.333333" stop-color="#37A1EA"/>
<stop offset="0.4" stop-color="#3996E9"/>
<stop offset="0.466667" stop-color="#3B90E8"/>
<stop offset="0.533333" stop-color="#3B8EE8"/>
<stop offset="0.6" stop-color="#3E88E8"/>
<stop offset="0.666667" stop-color="#427EE8"/>
<stop offset="0.733333" stop-color="#4771E7"/>
<stop offset="0.8" stop-color="#4A63E7"/>
<stop offset="0.866667" stop-color="#4D55E6"/>
<stop offset="0.933333" stop-color="#4E4AE5"/>
<stop offset="1" stop-color="#4F46E5"/>
</linearGradient>
<linearGradient id="paint8_linear_2251_1910" x1="0" y1="13.6348" x2="155.628" y2="13.6348" gradientUnits="userSpaceOnUse">
<stop stop-color="#22D3EE"/>
<stop offset="0.0666667" stop-color="#24D0EE"/>
<stop offset="0.133333" stop-color="#29C7ED"/>
<stop offset="0.2" stop-color="#2EBBED"/>
<stop offset="0.266667" stop-color="#33AEEB"/>
<stop offset="0.333333" stop-color="#37A1EA"/>
<stop offset="0.4" stop-color="#3996E9"/>
<stop offset="0.466667" stop-color="#3B90E8"/>
<stop offset="0.533333" stop-color="#3B8EE8"/>
<stop offset="0.6" stop-color="#3E88E8"/>
<stop offset="0.666667" stop-color="#427EE8"/>
<stop offset="0.733333" stop-color="#4771E7"/>
<stop offset="0.8" stop-color="#4A63E7"/>
<stop offset="0.866667" stop-color="#4D55E6"/>
<stop offset="0.933333" stop-color="#4E4AE5"/>
<stop offset="1" stop-color="#4F46E5"/>
</linearGradient>
<linearGradient id="paint9_linear_2251_1910" x1="0" y1="13.6348" x2="155.628" y2="13.6348" gradientUnits="userSpaceOnUse">
<stop stop-color="#22D3EE"/>
<stop offset="0.0666667" stop-color="#24D0EE"/>
<stop offset="0.133333" stop-color="#29C7ED"/>
<stop offset="0.2" stop-color="#2EBBED"/>
<stop offset="0.266667" stop-color="#33AEEB"/>
<stop offset="0.333333" stop-color="#37A1EA"/>
<stop offset="0.4" stop-color="#3996E9"/>
<stop offset="0.466667" stop-color="#3B90E8"/>
<stop offset="0.533333" stop-color="#3B8EE8"/>
<stop offset="0.6" stop-color="#3E88E8"/>
<stop offset="0.666667" stop-color="#427EE8"/>
<stop offset="0.733333" stop-color="#4771E7"/>
<stop offset="0.8" stop-color="#4A63E7"/>
<stop offset="0.866667" stop-color="#4D55E6"/>
<stop offset="0.933333" stop-color="#4E4AE5"/>
<stop offset="1" stop-color="#4F46E5"/>
</linearGradient>
<linearGradient id="paint10_linear_2251_1910" x1="0" y1="13.6348" x2="155.628" y2="13.6348" gradientUnits="userSpaceOnUse">
<stop stop-color="#22D3EE"/>
<stop offset="0.0666667" stop-color="#24D0EE"/>
<stop offset="0.133333" stop-color="#29C7ED"/>
<stop offset="0.2" stop-color="#2EBBED"/>
<stop offset="0.266667" stop-color="#33AEEB"/>
<stop offset="0.333333" stop-color="#37A1EA"/>
<stop offset="0.4" stop-color="#3996E9"/>
<stop offset="0.466667" stop-color="#3B90E8"/>
<stop offset="0.533333" stop-color="#3B8EE8"/>
<stop offset="0.6" stop-color="#3E88E8"/>
<stop offset="0.666667" stop-color="#427EE8"/>
<stop offset="0.733333" stop-color="#4771E7"/>
<stop offset="0.8" stop-color="#4A63E7"/>
<stop offset="0.866667" stop-color="#4D55E6"/>
<stop offset="0.933333" stop-color="#4E4AE5"/>
<stop offset="1" stop-color="#4F46E5"/>
</linearGradient>
<linearGradient id="paint11_linear_2251_1910" x1="0" y1="13.6348" x2="155.628" y2="13.6348" gradientUnits="userSpaceOnUse">
<stop stop-color="#22D3EE"/>
<stop offset="0.0666667" stop-color="#24D0EE"/>
<stop offset="0.133333" stop-color="#29C7ED"/>
<stop offset="0.2" stop-color="#2EBBED"/>
<stop offset="0.266667" stop-color="#33AEEB"/>
<stop offset="0.333333" stop-color="#37A1EA"/>
<stop offset="0.4" stop-color="#3996E9"/>
<stop offset="0.466667" stop-color="#3B90E8"/>
<stop offset="0.533333" stop-color="#3B8EE8"/>
<stop offset="0.6" stop-color="#3E88E8"/>
<stop offset="0.666667" stop-color="#427EE8"/>
<stop offset="0.733333" stop-color="#4771E7"/>
<stop offset="0.8" stop-color="#4A63E7"/>
<stop offset="0.866667" stop-color="#4D55E6"/>
<stop offset="0.933333" stop-color="#4E4AE5"/>
<stop offset="1" stop-color="#4F46E5"/>
</linearGradient>
<linearGradient id="paint12_linear_2251_1910" x1="0" y1="13.6348" x2="155.628" y2="13.6348" gradientUnits="userSpaceOnUse">
<stop stop-color="#22D3EE"/>
<stop offset="0.0666667" stop-color="#24D0EE"/>
<stop offset="0.133333" stop-color="#29C7ED"/>
<stop offset="0.2" stop-color="#2EBBED"/>
<stop offset="0.266667" stop-color="#33AEEB"/>
<stop offset="0.333333" stop-color="#37A1EA"/>
<stop offset="0.4" stop-color="#3996E9"/>
<stop offset="0.466667" stop-color="#3B90E8"/>
<stop offset="0.533333" stop-color="#3B8EE8"/>
<stop offset="0.6" stop-color="#3E88E8"/>
<stop offset="0.666667" stop-color="#427EE8"/>
<stop offset="0.733333" stop-color="#4771E7"/>
<stop offset="0.8" stop-color="#4A63E7"/>
<stop offset="0.866667" stop-color="#4D55E6"/>
<stop offset="0.933333" stop-color="#4E4AE5"/>
<stop offset="1" stop-color="#4F46E5"/>
</linearGradient>
<linearGradient id="paint13_linear_2251_1910" x1="0" y1="13.6348" x2="155.628" y2="13.6348" gradientUnits="userSpaceOnUse">
<stop stop-color="#22D3EE"/>
<stop offset="0.0666667" stop-color="#24D0EE"/>
<stop offset="0.133333" stop-color="#29C7ED"/>
<stop offset="0.2" stop-color="#2EBBED"/>
<stop offset="0.266667" stop-color="#33AEEB"/>
<stop offset="0.333333" stop-color="#37A1EA"/>
<stop offset="0.4" stop-color="#3996E9"/>
<stop offset="0.466667" stop-color="#3B90E8"/>
<stop offset="0.533333" stop-color="#3B8EE8"/>
<stop offset="0.6" stop-color="#3E88E8"/>
<stop offset="0.666667" stop-color="#427EE8"/>
<stop offset="0.733333" stop-color="#4771E7"/>
<stop offset="0.8" stop-color="#4A63E7"/>
<stop offset="0.866667" stop-color="#4D55E6"/>
<stop offset="0.933333" stop-color="#4E4AE5"/>
<stop offset="1" stop-color="#4F46E5"/>
</linearGradient>
<linearGradient id="paint14_linear_2251_1910" x1="0" y1="13.6348" x2="155.628" y2="13.6348" gradientUnits="userSpaceOnUse">
<stop stop-color="#22D3EE"/>
<stop offset="0.0666667" stop-color="#24D0EE"/>
<stop offset="0.133333" stop-color="#29C7ED"/>
<stop offset="0.2" stop-color="#2EBBED"/>
<stop offset="0.266667" stop-color="#33AEEB"/>
<stop offset="0.333333" stop-color="#37A1EA"/>
<stop offset="0.4" stop-color="#3996E9"/>
<stop offset="0.466667" stop-color="#3B90E8"/>
<stop offset="0.533333" stop-color="#3B8EE8"/>
<stop offset="0.6" stop-color="#3E88E8"/>
<stop offset="0.666667" stop-color="#427EE8"/>
<stop offset="0.733333" stop-color="#4771E7"/>
<stop offset="0.8" stop-color="#4A63E7"/>
<stop offset="0.866667" stop-color="#4D55E6"/>
<stop offset="0.933333" stop-color="#4E4AE5"/>
<stop offset="1" stop-color="#4F46E5"/>
</linearGradient>
<linearGradient id="paint15_linear_2251_1910" x1="22.7906" y1="3.99354" x2="29.3468" y2="41.4099" gradientUnits="userSpaceOnUse">
<stop stop-color="#0F5F7A"/>
<stop offset="0.0526316" stop-color="#0F5D7B"/>
<stop offset="0.105263" stop-color="#10597E"/>
<stop offset="0.157895" stop-color="#125482"/>
<stop offset="0.210526" stop-color="#144D86"/>
<stop offset="0.263158" stop-color="#17458A"/>
<stop offset="0.315789" stop-color="#193F8D"/>
<stop offset="0.368421" stop-color="#1B3B8F"/>
<stop offset="0.421053" stop-color="#1C3A8F"/>
<stop offset="0.473684" stop-color="#233991"/>
<stop offset="0.526316" stop-color="#2D3793"/>
<stop offset="0.578947" stop-color="#373597"/>
<stop offset="0.631579" stop-color="#40329A"/>
<stop offset="0.684211" stop-color="#472F9D"/>
<stop offset="0.736842" stop-color="#4A2E9E"/>
<stop offset="0.789474" stop-color="#4C2F9E"/>
<stop offset="0.842105" stop-color="#54329E"/>
<stop offset="0.894737" stop-color="#5E369E"/>
<stop offset="0.947368" stop-color="#67399E"/>
<stop offset="1" stop-color="#6B3A9E"/>
</linearGradient>
<linearGradient id="paint16_linear_2251_1910" x1="22.7906" y1="3.99354" x2="29.3468" y2="41.4099" gradientUnits="userSpaceOnUse">
<stop stop-color="#0F5F7A"/>
<stop offset="0.0526316" stop-color="#0F5D7B"/>
<stop offset="0.105263" stop-color="#10597E"/>
<stop offset="0.157895" stop-color="#125482"/>
<stop offset="0.210526" stop-color="#144D86"/>
<stop offset="0.263158" stop-color="#17458A"/>
<stop offset="0.315789" stop-color="#193F8D"/>
<stop offset="0.368421" stop-color="#1B3B8F"/>
<stop offset="0.421053" stop-color="#1C3A8F"/>
<stop offset="0.473684" stop-color="#233991"/>
<stop offset="0.526316" stop-color="#2D3793"/>
<stop offset="0.578947" stop-color="#373597"/>
<stop offset="0.631579" stop-color="#40329A"/>
<stop offset="0.684211" stop-color="#472F9D"/>
<stop offset="0.736842" stop-color="#4A2E9E"/>
<stop offset="0.789474" stop-color="#4C2F9E"/>
<stop offset="0.842105" stop-color="#54329E"/>
<stop offset="0.894737" stop-color="#5E369E"/>
<stop offset="0.947368" stop-color="#67399E"/>
<stop offset="1" stop-color="#6B3A9E"/>
</linearGradient>
<linearGradient id="paint17_linear_2251_1910" x1="22.7906" y1="3.99354" x2="29.3468" y2="41.4099" gradientUnits="userSpaceOnUse">
<stop stop-color="#0F5F7A"/>
<stop offset="0.0526316" stop-color="#0F5D7B"/>
<stop offset="0.105263" stop-color="#10597E"/>
<stop offset="0.157895" stop-color="#125482"/>
<stop offset="0.210526" stop-color="#144D86"/>
<stop offset="0.263158" stop-color="#17458A"/>
<stop offset="0.315789" stop-color="#193F8D"/>
<stop offset="0.368421" stop-color="#1B3B8F"/>
<stop offset="0.421053" stop-color="#1C3A8F"/>
<stop offset="0.473684" stop-color="#233991"/>
<stop offset="0.526316" stop-color="#2D3793"/>
<stop offset="0.578947" stop-color="#373597"/>
<stop offset="0.631579" stop-color="#40329A"/>
<stop offset="0.684211" stop-color="#472F9D"/>
<stop offset="0.736842" stop-color="#4A2E9E"/>
<stop offset="0.789474" stop-color="#4C2F9E"/>
<stop offset="0.842105" stop-color="#54329E"/>
<stop offset="0.894737" stop-color="#5E369E"/>
<stop offset="0.947368" stop-color="#67399E"/>
<stop offset="1" stop-color="#6B3A9E"/>
</linearGradient>
<linearGradient id="paint18_linear_2251_1910" x1="22.7906" y1="3.99354" x2="29.3468" y2="41.4099" gradientUnits="userSpaceOnUse">
<stop stop-color="#0F5F7A"/>
<stop offset="0.0526316" stop-color="#0F5D7B"/>
<stop offset="0.105263" stop-color="#10597E"/>
<stop offset="0.157895" stop-color="#125482"/>
<stop offset="0.210526" stop-color="#144D86"/>
<stop offset="0.263158" stop-color="#17458A"/>
<stop offset="0.315789" stop-color="#193F8D"/>
<stop offset="0.368421" stop-color="#1B3B8F"/>
<stop offset="0.421053" stop-color="#1C3A8F"/>
<stop offset="0.473684" stop-color="#233991"/>
<stop offset="0.526316" stop-color="#2D3793"/>
<stop offset="0.578947" stop-color="#373597"/>
<stop offset="0.631579" stop-color="#40329A"/>
<stop offset="0.684211" stop-color="#472F9D"/>
<stop offset="0.736842" stop-color="#4A2E9E"/>
<stop offset="0.789474" stop-color="#4C2F9E"/>
<stop offset="0.842105" stop-color="#54329E"/>
<stop offset="0.894737" stop-color="#5E369E"/>
<stop offset="0.947368" stop-color="#67399E"/>
<stop offset="1" stop-color="#6B3A9E"/>
</linearGradient>
<linearGradient id="paint19_linear_2251_1910" x1="22.7906" y1="3.99354" x2="29.3468" y2="41.4099" gradientUnits="userSpaceOnUse">
<stop stop-color="#0F5F7A"/>
<stop offset="0.0526316" stop-color="#0F5D7B"/>
<stop offset="0.105263" stop-color="#10597E"/>
<stop offset="0.157895" stop-color="#125482"/>
<stop offset="0.210526" stop-color="#144D86"/>
<stop offset="0.263158" stop-color="#17458A"/>
<stop offset="0.315789" stop-color="#193F8D"/>
<stop offset="0.368421" stop-color="#1B3B8F"/>
<stop offset="0.421053" stop-color="#1C3A8F"/>
<stop offset="0.473684" stop-color="#233991"/>
<stop offset="0.526316" stop-color="#2D3793"/>
<stop offset="0.578947" stop-color="#373597"/>
<stop offset="0.631579" stop-color="#40329A"/>
<stop offset="0.684211" stop-color="#472F9D"/>
<stop offset="0.736842" stop-color="#4A2E9E"/>
<stop offset="0.789474" stop-color="#4C2F9E"/>
<stop offset="0.842105" stop-color="#54329E"/>
<stop offset="0.894737" stop-color="#5E369E"/>
<stop offset="0.947368" stop-color="#67399E"/>
<stop offset="1" stop-color="#6B3A9E"/>
</linearGradient>
<linearGradient id="paint20_linear_2251_1910" x1="22.7906" y1="3.99354" x2="29.3468" y2="41.4099" gradientUnits="userSpaceOnUse">
<stop stop-color="#0F5F7A"/>
<stop offset="0.0526316" stop-color="#0F5D7B"/>
<stop offset="0.105263" stop-color="#10597E"/>
<stop offset="0.157895" stop-color="#125482"/>
<stop offset="0.210526" stop-color="#144D86"/>
<stop offset="0.263158" stop-color="#17458A"/>
<stop offset="0.315789" stop-color="#193F8D"/>
<stop offset="0.368421" stop-color="#1B3B8F"/>
<stop offset="0.421053" stop-color="#1C3A8F"/>
<stop offset="0.473684" stop-color="#233991"/>
<stop offset="0.526316" stop-color="#2D3793"/>
<stop offset="0.578947" stop-color="#373597"/>
<stop offset="0.631579" stop-color="#40329A"/>
<stop offset="0.684211" stop-color="#472F9D"/>
<stop offset="0.736842" stop-color="#4A2E9E"/>
<stop offset="0.789474" stop-color="#4C2F9E"/>
<stop offset="0.842105" stop-color="#54329E"/>
<stop offset="0.894737" stop-color="#5E369E"/>
<stop offset="0.947368" stop-color="#67399E"/>
<stop offset="1" stop-color="#6B3A9E"/>
</linearGradient>
<linearGradient id="paint21_linear_2251_1910" x1="22.7906" y1="3.99354" x2="29.3468" y2="41.4099" gradientUnits="userSpaceOnUse">
<stop stop-color="#0F5F7A"/>
<stop offset="0.0526316" stop-color="#0F5D7B"/>
<stop offset="0.105263" stop-color="#10597E"/>
<stop offset="0.157895" stop-color="#125482"/>
<stop offset="0.210526" stop-color="#144D86"/>
<stop offset="0.263158" stop-color="#17458A"/>
<stop offset="0.315789" stop-color="#193F8D"/>
<stop offset="0.368421" stop-color="#1B3B8F"/>
<stop offset="0.421053" stop-color="#1C3A8F"/>
<stop offset="0.473684" stop-color="#233991"/>
<stop offset="0.526316" stop-color="#2D3793"/>
<stop offset="0.578947" stop-color="#373597"/>
<stop offset="0.631579" stop-color="#40329A"/>
<stop offset="0.684211" stop-color="#472F9D"/>
<stop offset="0.736842" stop-color="#4A2E9E"/>
<stop offset="0.789474" stop-color="#4C2F9E"/>
<stop offset="0.842105" stop-color="#54329E"/>
<stop offset="0.894737" stop-color="#5E369E"/>
<stop offset="0.947368" stop-color="#67399E"/>
<stop offset="1" stop-color="#6B3A9E"/>
</linearGradient>
<linearGradient id="paint22_linear_2251_1910" x1="22.7906" y1="3.99354" x2="29.3468" y2="41.4099" gradientUnits="userSpaceOnUse">
<stop stop-color="#0F5F7A"/>
<stop offset="0.0526316" stop-color="#0F5D7B"/>
<stop offset="0.105263" stop-color="#10597E"/>
<stop offset="0.157895" stop-color="#125482"/>
<stop offset="0.210526" stop-color="#144D86"/>
<stop offset="0.263158" stop-color="#17458A"/>
<stop offset="0.315789" stop-color="#193F8D"/>
<stop offset="0.368421" stop-color="#1B3B8F"/>
<stop offset="0.421053" stop-color="#1C3A8F"/>
<stop offset="0.473684" stop-color="#233991"/>
<stop offset="0.526316" stop-color="#2D3793"/>
<stop offset="0.578947" stop-color="#373597"/>
<stop offset="0.631579" stop-color="#40329A"/>
<stop offset="0.684211" stop-color="#472F9D"/>
<stop offset="0.736842" stop-color="#4A2E9E"/>
<stop offset="0.789474" stop-color="#4C2F9E"/>
<stop offset="0.842105" stop-color="#54329E"/>
<stop offset="0.894737" stop-color="#5E369E"/>
<stop offset="0.947368" stop-color="#67399E"/>
<stop offset="1" stop-color="#6B3A9E"/>
</linearGradient>
<linearGradient id="paint23_linear_2251_1910" x1="22.7906" y1="3.99354" x2="29.3468" y2="41.4099" gradientUnits="userSpaceOnUse">
<stop stop-color="#0F5F7A"/>
<stop offset="0.0526316" stop-color="#0F5D7B"/>
<stop offset="0.105263" stop-color="#10597E"/>
<stop offset="0.157895" stop-color="#125482"/>
<stop offset="0.210526" stop-color="#144D86"/>
<stop offset="0.263158" stop-color="#17458A"/>
<stop offset="0.315789" stop-color="#193F8D"/>
<stop offset="0.368421" stop-color="#1B3B8F"/>
<stop offset="0.421053" stop-color="#1C3A8F"/>
<stop offset="0.473684" stop-color="#233991"/>
<stop offset="0.526316" stop-color="#2D3793"/>
<stop offset="0.578947" stop-color="#373597"/>
<stop offset="0.631579" stop-color="#40329A"/>
<stop offset="0.684211" stop-color="#472F9D"/>
<stop offset="0.736842" stop-color="#4A2E9E"/>
<stop offset="0.789474" stop-color="#4C2F9E"/>
<stop offset="0.842105" stop-color="#54329E"/>
<stop offset="0.894737" stop-color="#5E369E"/>
<stop offset="0.947368" stop-color="#67399E"/>
<stop offset="1" stop-color="#6B3A9E"/>
</linearGradient>
<linearGradient id="paint24_linear_2251_1910" x1="22.7906" y1="3.99354" x2="29.3468" y2="41.4099" gradientUnits="userSpaceOnUse">
<stop stop-color="#0F5F7A"/>
<stop offset="0.0526316" stop-color="#0F5D7B"/>
<stop offset="0.105263" stop-color="#10597E"/>
<stop offset="0.157895" stop-color="#125482"/>
<stop offset="0.210526" stop-color="#144D86"/>
<stop offset="0.263158" stop-color="#17458A"/>
<stop offset="0.315789" stop-color="#193F8D"/>
<stop offset="0.368421" stop-color="#1B3B8F"/>
<stop offset="0.421053" stop-color="#1C3A8F"/>
<stop offset="0.473684" stop-color="#233991"/>
<stop offset="0.526316" stop-color="#2D3793"/>
<stop offset="0.578947" stop-color="#373597"/>
<stop offset="0.631579" stop-color="#40329A"/>
<stop offset="0.684211" stop-color="#472F9D"/>
<stop offset="0.736842" stop-color="#4A2E9E"/>
<stop offset="0.789474" stop-color="#4C2F9E"/>
<stop offset="0.842105" stop-color="#54329E"/>
<stop offset="0.894737" stop-color="#5E369E"/>
<stop offset="0.947368" stop-color="#67399E"/>
<stop offset="1" stop-color="#6B3A9E"/>
</linearGradient>
<linearGradient id="paint25_linear_2251_1910" x1="22.7906" y1="3.99354" x2="29.3468" y2="41.4099" gradientUnits="userSpaceOnUse">
<stop stop-color="#0F5F7A"/>
<stop offset="0.0526316" stop-color="#0F5D7B"/>
<stop offset="0.105263" stop-color="#10597E"/>
<stop offset="0.157895" stop-color="#125482"/>
<stop offset="0.210526" stop-color="#144D86"/>
<stop offset="0.263158" stop-color="#17458A"/>
<stop offset="0.315789" stop-color="#193F8D"/>
<stop offset="0.368421" stop-color="#1B3B8F"/>
<stop offset="0.421053" stop-color="#1C3A8F"/>
<stop offset="0.473684" stop-color="#233991"/>
<stop offset="0.526316" stop-color="#2D3793"/>
<stop offset="0.578947" stop-color="#373597"/>
<stop offset="0.631579" stop-color="#40329A"/>
<stop offset="0.684211" stop-color="#472F9D"/>
<stop offset="0.736842" stop-color="#4A2E9E"/>
<stop offset="0.789474" stop-color="#4C2F9E"/>
<stop offset="0.842105" stop-color="#54329E"/>
<stop offset="0.894737" stop-color="#5E369E"/>
<stop offset="0.947368" stop-color="#67399E"/>
<stop offset="1" stop-color="#6B3A9E"/>
</linearGradient>
<linearGradient id="paint26_linear_2251_1910" x1="22.7906" y1="3.99354" x2="29.3468" y2="41.4099" gradientUnits="userSpaceOnUse">
<stop stop-color="#0F5F7A"/>
<stop offset="0.0526316" stop-color="#0F5D7B"/>
<stop offset="0.105263" stop-color="#10597E"/>
<stop offset="0.157895" stop-color="#125482"/>
<stop offset="0.210526" stop-color="#144D86"/>
<stop offset="0.263158" stop-color="#17458A"/>
<stop offset="0.315789" stop-color="#193F8D"/>
<stop offset="0.368421" stop-color="#1B3B8F"/>
<stop offset="0.421053" stop-color="#1C3A8F"/>
<stop offset="0.473684" stop-color="#233991"/>
<stop offset="0.526316" stop-color="#2D3793"/>
<stop offset="0.578947" stop-color="#373597"/>
<stop offset="0.631579" stop-color="#40329A"/>
<stop offset="0.684211" stop-color="#472F9D"/>
<stop offset="0.736842" stop-color="#4A2E9E"/>
<stop offset="0.789474" stop-color="#4C2F9E"/>
<stop offset="0.842105" stop-color="#54329E"/>
<stop offset="0.894737" stop-color="#5E369E"/>
<stop offset="0.947368" stop-color="#67399E"/>
<stop offset="1" stop-color="#6B3A9E"/>
</linearGradient>
<linearGradient id="paint27_linear_2251_1910" x1="22.7906" y1="3.99354" x2="29.3468" y2="41.4099" gradientUnits="userSpaceOnUse">
<stop stop-color="#0F5F7A"/>
<stop offset="0.0526316" stop-color="#0F5D7B"/>
<stop offset="0.105263" stop-color="#10597E"/>
<stop offset="0.157895" stop-color="#125482"/>
<stop offset="0.210526" stop-color="#144D86"/>
<stop offset="0.263158" stop-color="#17458A"/>
<stop offset="0.315789" stop-color="#193F8D"/>
<stop offset="0.368421" stop-color="#1B3B8F"/>
<stop offset="0.421053" stop-color="#1C3A8F"/>
<stop offset="0.473684" stop-color="#233991"/>
<stop offset="0.526316" stop-color="#2D3793"/>
<stop offset="0.578947" stop-color="#373597"/>
<stop offset="0.631579" stop-color="#40329A"/>
<stop offset="0.684211" stop-color="#472F9D"/>
<stop offset="0.736842" stop-color="#4A2E9E"/>
<stop offset="0.789474" stop-color="#4C2F9E"/>
<stop offset="0.842105" stop-color="#54329E"/>
<stop offset="0.894737" stop-color="#5E369E"/>
<stop offset="0.947368" stop-color="#67399E"/>
<stop offset="1" stop-color="#6B3A9E"/>
</linearGradient>
<linearGradient id="paint28_linear_2251_1910" x1="22.7906" y1="3.99354" x2="29.3468" y2="41.4099" gradientUnits="userSpaceOnUse">
<stop stop-color="#0F5F7A"/>
<stop offset="0.0526316" stop-color="#0F5D7B"/>
<stop offset="0.105263" stop-color="#10597E"/>
<stop offset="0.157895" stop-color="#125482"/>
<stop offset="0.210526" stop-color="#144D86"/>
<stop offset="0.263158" stop-color="#17458A"/>
<stop offset="0.315789" stop-color="#193F8D"/>
<stop offset="0.368421" stop-color="#1B3B8F"/>
<stop offset="0.421053" stop-color="#1C3A8F"/>
<stop offset="0.473684" stop-color="#233991"/>
<stop offset="0.526316" stop-color="#2D3793"/>
<stop offset="0.578947" stop-color="#373597"/>
<stop offset="0.631579" stop-color="#40329A"/>
<stop offset="0.684211" stop-color="#472F9D"/>
<stop offset="0.736842" stop-color="#4A2E9E"/>
<stop offset="0.789474" stop-color="#4C2F9E"/>
<stop offset="0.842105" stop-color="#54329E"/>
<stop offset="0.894737" stop-color="#5E369E"/>
<stop offset="0.947368" stop-color="#67399E"/>
<stop offset="1" stop-color="#6B3A9E"/>
</linearGradient>
<linearGradient id="paint29_linear_2251_1910" x1="22.7906" y1="3.99354" x2="29.3468" y2="41.4099" gradientUnits="userSpaceOnUse">
<stop stop-color="#0F5F7A"/>
<stop offset="0.0526316" stop-color="#0F5D7B"/>
<stop offset="0.105263" stop-color="#10597E"/>
<stop offset="0.157895" stop-color="#125482"/>
<stop offset="0.210526" stop-color="#144D86"/>
<stop offset="0.263158" stop-color="#17458A"/>
<stop offset="0.315789" stop-color="#193F8D"/>
<stop offset="0.368421" stop-color="#1B3B8F"/>
<stop offset="0.421053" stop-color="#1C3A8F"/>
<stop offset="0.473684" stop-color="#233991"/>
<stop offset="0.526316" stop-color="#2D3793"/>
<stop offset="0.578947" stop-color="#373597"/>
<stop offset="0.631579" stop-color="#40329A"/>
<stop offset="0.684211" stop-color="#472F9D"/>
<stop offset="0.736842" stop-color="#4A2E9E"/>
<stop offset="0.789474" stop-color="#4C2F9E"/>
<stop offset="0.842105" stop-color="#54329E"/>
<stop offset="0.894737" stop-color="#5E369E"/>
<stop offset="0.947368" stop-color="#67399E"/>
<stop offset="1" stop-color="#6B3A9E"/>
</linearGradient>
</defs>
</svg>
