<svg xmlns="http://www.w3.org/2000/svg" viewBox="0 0 384 384"><g fill="#000000">
<path d="M0 0 C1.2 -0 2.3 -0 3.5 -0 C7.4 -0 11.3 -0 15.1 -0 C17.9 -0 20.7 -0 23.5 -0 C31.1 -0 38.6 -0 46.2 -0 C54.1 -0 62 -0 69.9 -0 C84 -0 98.1 -0 112.3 -0 C125.1 0 137.9 0 150.7 -0 C165.6 -0 180.4 -0 195.3 -0 C203.2 -0 211.1 -0 218.9 -0 C226.3 -0 233.7 -0 241.1 -0 C243.8 -0 246.6 -0 249.3 -0 C253 -0 256.7 -0 260.4 0 C261.5 -0 262.5 -0 263.6 -0 C278.9 0.1 294.4 7.7 305.2 18.4 C311.3 25.4 315.9 32.7 319.2 41.4 C319.7 42.7 320.2 44 320.7 45.3 C322.6 51 322.6 56.3 322.6 62.2 C322.6 63.3 322.6 64.5 322.6 65.7 C322.6 69.6 322.6 73.5 322.6 77.3 C322.6 80.1 322.6 82.9 322.6 85.7 C322.6 93.2 322.6 100.8 322.6 108.3 C322.6 116.3 322.6 124.2 322.6 132.1 C322.6 146.2 322.6 160.3 322.6 174.5 C322.6 187.3 322.6 200.1 322.6 212.9 C322.6 227.7 322.6 242.6 322.6 257.5 C322.6 265.4 322.6 273.2 322.6 281.1 C322.6 288.5 322.6 295.9 322.6 303.3 C322.6 306 322.6 308.7 322.6 311.5 C322.6 315.2 322.6 318.9 322.6 322.6 C322.6 323.7 322.6 324.7 322.6 325.8 C322.5 341.1 314.9 356.6 304.2 367.4 C297.2 373.5 289.9 378.1 281.2 381.4 C280.5 381.6 280.5 381.6 277.3 382.9 C271.6 384.8 266.3 384.8 260.4 384.8 C259.8 384.8 259.8 384.8 256.9 384.8 C253 384.8 249.1 384.8 245.2 384.8 C242.5 384.8 239.7 384.8 236.9 384.8 C229.3 384.8 221.8 384.8 214.2 384.8 C206.3 384.8 198.4 384.8 190.5 384.8 C176.4 384.8 162.3 384.8 148.1 384.8 C135.3 384.8 122.5 384.8 109.7 384.8 C94.8 384.8 80 384.8 65.1 384.8 C57.2 384.8 49.3 384.8 41.5 384.8 C34.1 384.8 26.7 384.8 19.3 384.8 C16.6 384.8 13.8 384.8 11.1 384.8 C7.4 384.8 3.7 384.8 0 384.8 C-0.5 384.8 -0.5 384.8 -3.3 384.8 C-18.5 384.7 -34 377.1 -44.8 366.4 C-50.9 359.4 -55.6 352.1 -58.8 343.4 C-59.3 342.1 -59.8 340.8 -60.3 339.4 C-62.2 333.8 -62.2 328.5 -62.2 322.6 C-62.2 321.4 -62.2 320.3 -62.2 319.1 C-62.2 315.2 -62.2 311.3 -62.2 307.4 C-62.2 304.6 -62.2 301.9 -62.2 299.1 C-62.2 291.5 -62.2 284 -62.2 276.4 C-62.2 268.5 -62.2 260.6 -62.2 252.7 C-62.2 238.6 -62.2 224.4 -62.2 210.3 C-62.2 197.5 -62.2 184.7 -62.2 171.9 C-62.2 157 -62.2 142.1 -62.2 127.3 C-62.2 119.4 -62.2 111.5 -62.2 103.7 C-62.2 96.3 -62.2 88.9 -62.2 81.5 C-62.2 78.7 -62.2 76 -62.2 73.3 C-62.2 69.6 -62.2 65.9 -62.2 62.2 C-62.2 61.1 -62.2 60 -62.2 58.9 C-62.1 43.7 -54.5 28.2 -43.8 17.4 C-36.8 11.3 -29.5 6.6 -20.8 3.4 C-19.5 2.9 -18.2 2.4 -16.9 1.8 C-11.2 -0 -5.9 -0 0 0 Z " fill="#2D42F9" transform="translate(61.803466796875,-0.380950927734375)"/>
<path d="M0 0 C1.4 -0 2.8 -0.1 4.2 -0.1 C8.6 0.4 10.7 1.6 14.1 4.4 C17.5 9.1 17.7 13.7 17.1 19.4 C16 23.8 14.5 28.1 13 32.4 C2.6 63.8 -2.6 95.5 -5.9 128.4 C-2.6 126.7 -2.4 123.7 -1.2 120.4 C7.4 96.7 23.7 57.1 47.2 44.2 C53.4 41.6 58.7 40.8 65.4 42.4 C70 44.8 72.8 47.7 75.1 52.4 C75.3 54.5 75.3 56.5 75.4 58.6 C75.4 59.2 75.4 59.2 75.5 62 C75.1 67 74 71.6 73 76.5 C71.5 83.2 70.5 90 69.4 96.8 C69.2 98.2 69 99.6 68.8 101 C68.2 104.5 67.7 107.9 67.1 111.4 C70.8 109.3 74.4 107.2 77.9 104.8 C82.9 102 87.5 100.6 93.1 99.4 C94.1 99.1 95.1 98.9 96.1 98.7 C105 97.8 113.7 98.6 122.6 99.8 C123.6 99.9 124.6 100 125.7 100.1 C132.9 101 140 102.1 147.1 103.4 C147.5 104.4 147.8 105.4 148.1 106.4 C147.4 106.5 146.7 106.6 146 106.8 C110.3 113.2 110.3 113.2 100.1 119.4 C99.1 119.4 98.1 119.4 97.1 119.4 C97.1 120 97.1 120.7 97.1 121.4 C95.2 123.1 93.3 124.8 91.3 126.4 C87.4 129.9 84.1 133.8 81.4 138.3 C81 139 80.6 139.7 80.1 140.4 C79.5 140.4 78.8 140.4 78.1 140.4 C78 141.1 77.8 141.8 77.6 142.5 C75.3 146.9 72.2 148.6 68.1 151.4 C61.3 153.1 56.3 152.9 50.1 149.4 C40.5 139.6 40.9 129.8 41 116.8 C41.2 109.6 41.6 102.5 42.1 95.4 C37.6 102.6 33.9 109.8 30.6 117.6 C30.1 118.7 29.6 119.8 29.1 121 C26.2 127.7 23.5 134.5 21.2 141.4 C19.8 145.4 18.1 149.3 16.4 153.2 C14.9 156.8 13.6 160.5 12.2 164.2 C9.4 171.9 6 179.1 2.1 186.4 C1.8 187 1.8 187 0.2 190.3 C-3.4 195.6 -6.6 199.7 -13 201.1 C-18.7 201.4 -22.9 201 -27.4 197.4 C-35.1 190.2 -35.6 180.4 -36.1 170.5 C-36.2 169.3 -36.3 168.1 -36.4 166.9 C-38.1 137.6 -35.2 108.3 -30.9 79.4 C-30.5 77 -30.2 74.7 -29.9 72.4 C-43.3 96.2 -43.3 96.2 -49.3 107.6 C-49.7 108.4 -50.1 109.2 -50.5 110 C-52.3 113.3 -54 116.6 -55.7 120 C-61 130.2 -67.6 139.3 -75.9 147.4 C-76.6 148.1 -77.3 148.9 -78.1 149.6 C-82.2 152.2 -86.1 152.6 -90.9 152.4 C-93.7 151.2 -93.7 151.2 -95.9 149.4 C-96.7 148.7 -97.6 148 -98.5 147.2 C-101.6 143.6 -102.6 139.9 -103.9 135.4 C-104.2 134.4 -104.5 133.4 -104.9 132.4 C-105.1 127.9 -105.1 123.4 -105.1 118.9 C-105.1 117.7 -105.1 116.5 -105.1 115.2 C-105.1 107.4 -104.4 100 -102.9 92.4 C-103.7 93.1 -104.6 93.7 -105.4 94.4 C-121.2 106.8 -137.2 112.4 -157.4 110.1 C-164.6 109.1 -171.8 108.1 -178.9 106.4 C-178.5 105.4 -178.2 104.4 -177.9 103.4 C-177.5 103.3 -177.5 103.3 -175.4 103.1 C-148.8 100.1 -127.7 84.5 -110.9 64.4 C-108.5 61 -106.2 57.7 -104 54.3 C-100.1 49 -95.8 45.3 -89.9 42.4 C-79.2 41.7 -79.2 41.7 -74.9 45.4 C-71.3 50.1 -70.7 53.6 -70.9 59.4 C-71.8 65.7 -73.3 71.9 -74.7 78.1 C-76.4 85.4 -77.2 91.9 -76.9 99.4 C-76.3 98.3 -75.7 97.1 -75.1 96 C-70.4 86.7 -65.4 77.6 -60.1 68.6 C-59.5 67.7 -59 66.8 -58.4 65.9 C-55.5 60.8 -52.3 56.1 -48.9 51.4 C-47.5 49 -46.2 46.7 -44.9 44.4 C-16.4 0.2 -16.4 0.2 0 0 Z " fill="#F6F7FD" transform="translate(207.875,91.625)"/>
</g></svg>
